<svg width="24" height="25" viewBox="0 0 24 25" fill="none" xmlns="http://www.w3.org/2000/svg">
<path fill-rule="evenodd" clip-rule="evenodd" d="M20 13.7854C20 18.2037 16.4183 21.7854 12 21.7854C7.58172 21.7854 4 18.2037 4 13.7854C4 11.3279 4.87798 9.18164 6.05223 7.41016C6.38594 6.90671 7.09427 6.86431 7.52 7.29276L8.35545 8.13356C8.88041 8.66187 9.77798 8.45149 10.0135 7.74494L11.6139 2.94377C11.8136 2.34473 12.504 2.08802 13.0198 2.45224C15.1758 3.97462 20 8.02476 20 13.7854ZM12 20.6448C13.8075 20.6448 15.2727 19.1338 15.2727 17.2698C15.2727 15.0944 13.5392 13.106 12.5954 12.1847C12.259 11.8562 11.7411 11.8562 11.4046 12.1847C10.4609 13.106 8.72729 15.0944 8.72729 17.2698C8.72729 19.1338 10.1925 20.6448 12 20.6448Z" fill="#FF1F00"/>
<path d="M15.2727 17.2698C15.2727 19.1338 13.8075 20.6448 12 20.6448C10.1925 20.6448 8.72729 19.1338 8.72729 17.2698C8.72729 15.0944 10.4609 13.106 11.4046 12.1847C11.7411 11.8562 12.259 11.8562 12.5954 12.1847C13.5392 13.106 15.2727 15.0944 15.2727 17.2698Z" fill="white"/>
</svg>
